<svg width="600" height="137" viewBox="0 0 600 137" fill="none" xmlns="http://www.w3.org/2000/svg">
<path d="M566.856 110.84C586.169 110.84 600 97.1339 600 78.4435C600 59.7531 586.169 46.0469 566.856 46.0469C547.542 46.0469 533.711 59.7531 533.711 78.4435C533.711 97.1339 547.542 110.84 566.856 110.84ZM566.856 95.8878C557.511 95.8878 551.156 88.7855 551.156 78.4435C551.156 67.9769 557.511 60.8746 566.856 60.8746C576.201 60.8746 582.556 67.9769 582.556 78.4435C582.556 88.7855 576.201 95.8878 566.856 95.8878Z" fill="white"/>
<path d="M529.623 46C531.701 46 533.512 46.2323 534.869 46.5343V62.129C533.166 61.6202 530.646 61.2783 528.014 61.2783C517.207 61.2783 512.067 66.2479 512.067 78.602V109.843H494.623V47.0434H512.067L512.066 57.5256C514.875 49.7725 521.106 46 529.623 46Z" fill="white"/>
<circle cx="60" cy="77" r="60" transform="rotate(-180 60 77)" fill="#7553FF"/>
<circle cx="60" cy="77" r="28" transform="rotate(-180 60 77)" fill="#03000E"/>
<circle cx="118" cy="60" r="60" transform="rotate(-180 118 60)" fill="#7553FF"/>
<circle cx="118" cy="60" r="28" transform="rotate(-180 118 60)" fill="#03000E"/>
<path fill-rule="evenodd" clip-rule="evenodd" d="M242.831 112.922C268.502 112.922 287.536 94.0448 287.536 68.4611C287.536 42.8773 268.502 24 242.831 24C217.034 24 198 42.8773 198 68.4611C198 94.0448 217.034 112.922 242.831 112.922ZM242.705 96.7771C227.678 96.7771 216.909 84.7304 216.909 68.4611C216.909 52.1918 227.678 40.0209 242.705 40.0209C257.733 40.0209 268.627 52.1918 268.627 68.4611C268.627 84.7304 257.733 96.7771 242.705 96.7771Z" fill="white"/>
<path fill-rule="evenodd" clip-rule="evenodd" d="M293.325 131.054H310.731V106.34C314.112 110.563 320.248 112.922 327.386 112.922C345.544 112.922 357.816 100.13 357.816 80.632C357.816 61.1337 346.546 48.3418 328.889 48.3418C320.749 48.3418 314.488 51.3225 310.731 56.166V49.3354H293.325V131.054ZM325.257 98.019C315.865 98.019 309.729 91.0642 309.729 80.632C309.729 70.0756 315.865 63.1208 325.257 63.1208C334.399 63.1208 340.66 70.0756 340.66 80.632C340.66 91.0642 334.399 98.019 325.257 98.019Z" fill="white"/>
<path fill-rule="evenodd" clip-rule="evenodd" d="M406.24 90.9949C404.13 96.282 400.216 98.7642 393.334 98.7642C384.568 98.7642 378.933 93.2997 377.681 84.482H423.012C423.138 83.1159 423.263 81.253 423.263 78.8933C423.263 64.6111 414.372 48.3418 392.082 48.3418C370.668 48.3418 360.901 64.6111 360.901 80.5078C360.901 96.2803 371.92 112.922 393.334 112.922C406.042 112.922 416.402 107.1 421.118 97.5646L406.24 90.9949ZM405.857 73.553C405.356 66.5982 400.472 61.0095 392.082 61.0095C384.193 61.0095 379.434 64.8595 377.931 73.553H405.857Z" fill="white"/>
<path fill-rule="evenodd" clip-rule="evenodd" d="M472.313 90.9949C470.204 96.282 466.29 98.7642 459.408 98.7642C450.642 98.7642 445.007 93.2997 443.755 84.482H489.086C489.211 83.1159 489.337 81.253 489.337 78.8933C489.337 64.6111 480.446 48.3418 458.155 48.3418C436.742 48.3418 426.974 64.6111 426.974 80.5078C426.974 96.2803 437.994 112.922 459.408 112.922C472.116 112.922 482.475 107.1 487.192 97.5646L472.313 90.9949ZM471.93 73.553C471.429 66.5982 466.546 61.0095 458.155 61.0095C450.266 61.0095 445.508 64.8595 444.005 73.553H471.93Z" fill="white"/>
</svg>